G04 #@! TF.GenerationSoftware,KiCad,Pcbnew,5.0.2-bee76a0~70~ubuntu18.04.1*
G04 #@! TF.CreationDate,2019-10-20T22:12:44-04:00*
G04 #@! TF.ProjectId,Stepper Driver Card,53746570-7065-4722-9044-726976657220,rev?*
G04 #@! TF.SameCoordinates,Original*
G04 #@! TF.FileFunction,Paste,Top*
G04 #@! TF.FilePolarity,Positive*
%FSLAX46Y46*%
G04 Gerber Fmt 4.6, Leading zero omitted, Abs format (unit mm)*
G04 Created by KiCad (PCBNEW 5.0.2-bee76a0~70~ubuntu18.04.1) date Sun 20 Oct 2019 10:12:44 PM EDT*
%MOMM*%
%LPD*%
G01*
G04 APERTURE LIST*
%ADD10C,0.100000*%
%ADD11C,0.950000*%
%ADD12R,1.450000X0.450000*%
%ADD13R,0.250000X1.300000*%
%ADD14R,1.300000X0.250000*%
%ADD15R,1.651000X6.350000*%
%ADD16R,1.100000X0.285000*%
G04 APERTURE END LIST*
D10*
G04 #@! TO.C,R1*
G36*
X125160780Y-73171145D02*
X125183835Y-73174564D01*
X125206444Y-73180228D01*
X125228388Y-73188080D01*
X125249458Y-73198045D01*
X125269449Y-73210027D01*
X125288169Y-73223911D01*
X125305439Y-73239563D01*
X125321091Y-73256833D01*
X125334975Y-73275553D01*
X125346957Y-73295544D01*
X125356922Y-73316614D01*
X125364774Y-73338558D01*
X125370438Y-73361167D01*
X125373857Y-73384222D01*
X125375001Y-73407501D01*
X125375001Y-73882501D01*
X125373857Y-73905780D01*
X125370438Y-73928835D01*
X125364774Y-73951444D01*
X125356922Y-73973388D01*
X125346957Y-73994458D01*
X125334975Y-74014449D01*
X125321091Y-74033169D01*
X125305439Y-74050439D01*
X125288169Y-74066091D01*
X125269449Y-74079975D01*
X125249458Y-74091957D01*
X125228388Y-74101922D01*
X125206444Y-74109774D01*
X125183835Y-74115438D01*
X125160780Y-74118857D01*
X125137501Y-74120001D01*
X124562501Y-74120001D01*
X124539222Y-74118857D01*
X124516167Y-74115438D01*
X124493558Y-74109774D01*
X124471614Y-74101922D01*
X124450544Y-74091957D01*
X124430553Y-74079975D01*
X124411833Y-74066091D01*
X124394563Y-74050439D01*
X124378911Y-74033169D01*
X124365027Y-74014449D01*
X124353045Y-73994458D01*
X124343080Y-73973388D01*
X124335228Y-73951444D01*
X124329564Y-73928835D01*
X124326145Y-73905780D01*
X124325001Y-73882501D01*
X124325001Y-73407501D01*
X124326145Y-73384222D01*
X124329564Y-73361167D01*
X124335228Y-73338558D01*
X124343080Y-73316614D01*
X124353045Y-73295544D01*
X124365027Y-73275553D01*
X124378911Y-73256833D01*
X124394563Y-73239563D01*
X124411833Y-73223911D01*
X124430553Y-73210027D01*
X124450544Y-73198045D01*
X124471614Y-73188080D01*
X124493558Y-73180228D01*
X124516167Y-73174564D01*
X124539222Y-73171145D01*
X124562501Y-73170001D01*
X125137501Y-73170001D01*
X125160780Y-73171145D01*
X125160780Y-73171145D01*
G37*
D11*
X124850001Y-73645001D03*
D10*
G36*
X123410780Y-73171145D02*
X123433835Y-73174564D01*
X123456444Y-73180228D01*
X123478388Y-73188080D01*
X123499458Y-73198045D01*
X123519449Y-73210027D01*
X123538169Y-73223911D01*
X123555439Y-73239563D01*
X123571091Y-73256833D01*
X123584975Y-73275553D01*
X123596957Y-73295544D01*
X123606922Y-73316614D01*
X123614774Y-73338558D01*
X123620438Y-73361167D01*
X123623857Y-73384222D01*
X123625001Y-73407501D01*
X123625001Y-73882501D01*
X123623857Y-73905780D01*
X123620438Y-73928835D01*
X123614774Y-73951444D01*
X123606922Y-73973388D01*
X123596957Y-73994458D01*
X123584975Y-74014449D01*
X123571091Y-74033169D01*
X123555439Y-74050439D01*
X123538169Y-74066091D01*
X123519449Y-74079975D01*
X123499458Y-74091957D01*
X123478388Y-74101922D01*
X123456444Y-74109774D01*
X123433835Y-74115438D01*
X123410780Y-74118857D01*
X123387501Y-74120001D01*
X122812501Y-74120001D01*
X122789222Y-74118857D01*
X122766167Y-74115438D01*
X122743558Y-74109774D01*
X122721614Y-74101922D01*
X122700544Y-74091957D01*
X122680553Y-74079975D01*
X122661833Y-74066091D01*
X122644563Y-74050439D01*
X122628911Y-74033169D01*
X122615027Y-74014449D01*
X122603045Y-73994458D01*
X122593080Y-73973388D01*
X122585228Y-73951444D01*
X122579564Y-73928835D01*
X122576145Y-73905780D01*
X122575001Y-73882501D01*
X122575001Y-73407501D01*
X122576145Y-73384222D01*
X122579564Y-73361167D01*
X122585228Y-73338558D01*
X122593080Y-73316614D01*
X122603045Y-73295544D01*
X122615027Y-73275553D01*
X122628911Y-73256833D01*
X122644563Y-73239563D01*
X122661833Y-73223911D01*
X122680553Y-73210027D01*
X122700544Y-73198045D01*
X122721614Y-73188080D01*
X122743558Y-73180228D01*
X122766167Y-73174564D01*
X122789222Y-73171145D01*
X122812501Y-73170001D01*
X123387501Y-73170001D01*
X123410780Y-73171145D01*
X123410780Y-73171145D01*
G37*
D11*
X123100001Y-73645001D03*
G04 #@! TD*
D10*
G04 #@! TO.C,R2*
G36*
X125160780Y-74681145D02*
X125183835Y-74684564D01*
X125206444Y-74690228D01*
X125228388Y-74698080D01*
X125249458Y-74708045D01*
X125269449Y-74720027D01*
X125288169Y-74733911D01*
X125305439Y-74749563D01*
X125321091Y-74766833D01*
X125334975Y-74785553D01*
X125346957Y-74805544D01*
X125356922Y-74826614D01*
X125364774Y-74848558D01*
X125370438Y-74871167D01*
X125373857Y-74894222D01*
X125375001Y-74917501D01*
X125375001Y-75392501D01*
X125373857Y-75415780D01*
X125370438Y-75438835D01*
X125364774Y-75461444D01*
X125356922Y-75483388D01*
X125346957Y-75504458D01*
X125334975Y-75524449D01*
X125321091Y-75543169D01*
X125305439Y-75560439D01*
X125288169Y-75576091D01*
X125269449Y-75589975D01*
X125249458Y-75601957D01*
X125228388Y-75611922D01*
X125206444Y-75619774D01*
X125183835Y-75625438D01*
X125160780Y-75628857D01*
X125137501Y-75630001D01*
X124562501Y-75630001D01*
X124539222Y-75628857D01*
X124516167Y-75625438D01*
X124493558Y-75619774D01*
X124471614Y-75611922D01*
X124450544Y-75601957D01*
X124430553Y-75589975D01*
X124411833Y-75576091D01*
X124394563Y-75560439D01*
X124378911Y-75543169D01*
X124365027Y-75524449D01*
X124353045Y-75504458D01*
X124343080Y-75483388D01*
X124335228Y-75461444D01*
X124329564Y-75438835D01*
X124326145Y-75415780D01*
X124325001Y-75392501D01*
X124325001Y-74917501D01*
X124326145Y-74894222D01*
X124329564Y-74871167D01*
X124335228Y-74848558D01*
X124343080Y-74826614D01*
X124353045Y-74805544D01*
X124365027Y-74785553D01*
X124378911Y-74766833D01*
X124394563Y-74749563D01*
X124411833Y-74733911D01*
X124430553Y-74720027D01*
X124450544Y-74708045D01*
X124471614Y-74698080D01*
X124493558Y-74690228D01*
X124516167Y-74684564D01*
X124539222Y-74681145D01*
X124562501Y-74680001D01*
X125137501Y-74680001D01*
X125160780Y-74681145D01*
X125160780Y-74681145D01*
G37*
D11*
X124850001Y-75155001D03*
D10*
G36*
X123410780Y-74681145D02*
X123433835Y-74684564D01*
X123456444Y-74690228D01*
X123478388Y-74698080D01*
X123499458Y-74708045D01*
X123519449Y-74720027D01*
X123538169Y-74733911D01*
X123555439Y-74749563D01*
X123571091Y-74766833D01*
X123584975Y-74785553D01*
X123596957Y-74805544D01*
X123606922Y-74826614D01*
X123614774Y-74848558D01*
X123620438Y-74871167D01*
X123623857Y-74894222D01*
X123625001Y-74917501D01*
X123625001Y-75392501D01*
X123623857Y-75415780D01*
X123620438Y-75438835D01*
X123614774Y-75461444D01*
X123606922Y-75483388D01*
X123596957Y-75504458D01*
X123584975Y-75524449D01*
X123571091Y-75543169D01*
X123555439Y-75560439D01*
X123538169Y-75576091D01*
X123519449Y-75589975D01*
X123499458Y-75601957D01*
X123478388Y-75611922D01*
X123456444Y-75619774D01*
X123433835Y-75625438D01*
X123410780Y-75628857D01*
X123387501Y-75630001D01*
X122812501Y-75630001D01*
X122789222Y-75628857D01*
X122766167Y-75625438D01*
X122743558Y-75619774D01*
X122721614Y-75611922D01*
X122700544Y-75601957D01*
X122680553Y-75589975D01*
X122661833Y-75576091D01*
X122644563Y-75560439D01*
X122628911Y-75543169D01*
X122615027Y-75524449D01*
X122603045Y-75504458D01*
X122593080Y-75483388D01*
X122585228Y-75461444D01*
X122579564Y-75438835D01*
X122576145Y-75415780D01*
X122575001Y-75392501D01*
X122575001Y-74917501D01*
X122576145Y-74894222D01*
X122579564Y-74871167D01*
X122585228Y-74848558D01*
X122593080Y-74826614D01*
X122603045Y-74805544D01*
X122615027Y-74785553D01*
X122628911Y-74766833D01*
X122644563Y-74749563D01*
X122661833Y-74733911D01*
X122680553Y-74720027D01*
X122700544Y-74708045D01*
X122721614Y-74698080D01*
X122743558Y-74690228D01*
X122766167Y-74684564D01*
X122789222Y-74681145D01*
X122812501Y-74680001D01*
X123387501Y-74680001D01*
X123410780Y-74681145D01*
X123410780Y-74681145D01*
G37*
D11*
X123100001Y-75155001D03*
G04 #@! TD*
D10*
G04 #@! TO.C,R3*
G36*
X125160780Y-76191145D02*
X125183835Y-76194564D01*
X125206444Y-76200228D01*
X125228388Y-76208080D01*
X125249458Y-76218045D01*
X125269449Y-76230027D01*
X125288169Y-76243911D01*
X125305439Y-76259563D01*
X125321091Y-76276833D01*
X125334975Y-76295553D01*
X125346957Y-76315544D01*
X125356922Y-76336614D01*
X125364774Y-76358558D01*
X125370438Y-76381167D01*
X125373857Y-76404222D01*
X125375001Y-76427501D01*
X125375001Y-76902501D01*
X125373857Y-76925780D01*
X125370438Y-76948835D01*
X125364774Y-76971444D01*
X125356922Y-76993388D01*
X125346957Y-77014458D01*
X125334975Y-77034449D01*
X125321091Y-77053169D01*
X125305439Y-77070439D01*
X125288169Y-77086091D01*
X125269449Y-77099975D01*
X125249458Y-77111957D01*
X125228388Y-77121922D01*
X125206444Y-77129774D01*
X125183835Y-77135438D01*
X125160780Y-77138857D01*
X125137501Y-77140001D01*
X124562501Y-77140001D01*
X124539222Y-77138857D01*
X124516167Y-77135438D01*
X124493558Y-77129774D01*
X124471614Y-77121922D01*
X124450544Y-77111957D01*
X124430553Y-77099975D01*
X124411833Y-77086091D01*
X124394563Y-77070439D01*
X124378911Y-77053169D01*
X124365027Y-77034449D01*
X124353045Y-77014458D01*
X124343080Y-76993388D01*
X124335228Y-76971444D01*
X124329564Y-76948835D01*
X124326145Y-76925780D01*
X124325001Y-76902501D01*
X124325001Y-76427501D01*
X124326145Y-76404222D01*
X124329564Y-76381167D01*
X124335228Y-76358558D01*
X124343080Y-76336614D01*
X124353045Y-76315544D01*
X124365027Y-76295553D01*
X124378911Y-76276833D01*
X124394563Y-76259563D01*
X124411833Y-76243911D01*
X124430553Y-76230027D01*
X124450544Y-76218045D01*
X124471614Y-76208080D01*
X124493558Y-76200228D01*
X124516167Y-76194564D01*
X124539222Y-76191145D01*
X124562501Y-76190001D01*
X125137501Y-76190001D01*
X125160780Y-76191145D01*
X125160780Y-76191145D01*
G37*
D11*
X124850001Y-76665001D03*
D10*
G36*
X123410780Y-76191145D02*
X123433835Y-76194564D01*
X123456444Y-76200228D01*
X123478388Y-76208080D01*
X123499458Y-76218045D01*
X123519449Y-76230027D01*
X123538169Y-76243911D01*
X123555439Y-76259563D01*
X123571091Y-76276833D01*
X123584975Y-76295553D01*
X123596957Y-76315544D01*
X123606922Y-76336614D01*
X123614774Y-76358558D01*
X123620438Y-76381167D01*
X123623857Y-76404222D01*
X123625001Y-76427501D01*
X123625001Y-76902501D01*
X123623857Y-76925780D01*
X123620438Y-76948835D01*
X123614774Y-76971444D01*
X123606922Y-76993388D01*
X123596957Y-77014458D01*
X123584975Y-77034449D01*
X123571091Y-77053169D01*
X123555439Y-77070439D01*
X123538169Y-77086091D01*
X123519449Y-77099975D01*
X123499458Y-77111957D01*
X123478388Y-77121922D01*
X123456444Y-77129774D01*
X123433835Y-77135438D01*
X123410780Y-77138857D01*
X123387501Y-77140001D01*
X122812501Y-77140001D01*
X122789222Y-77138857D01*
X122766167Y-77135438D01*
X122743558Y-77129774D01*
X122721614Y-77121922D01*
X122700544Y-77111957D01*
X122680553Y-77099975D01*
X122661833Y-77086091D01*
X122644563Y-77070439D01*
X122628911Y-77053169D01*
X122615027Y-77034449D01*
X122603045Y-77014458D01*
X122593080Y-76993388D01*
X122585228Y-76971444D01*
X122579564Y-76948835D01*
X122576145Y-76925780D01*
X122575001Y-76902501D01*
X122575001Y-76427501D01*
X122576145Y-76404222D01*
X122579564Y-76381167D01*
X122585228Y-76358558D01*
X122593080Y-76336614D01*
X122603045Y-76315544D01*
X122615027Y-76295553D01*
X122628911Y-76276833D01*
X122644563Y-76259563D01*
X122661833Y-76243911D01*
X122680553Y-76230027D01*
X122700544Y-76218045D01*
X122721614Y-76208080D01*
X122743558Y-76200228D01*
X122766167Y-76194564D01*
X122789222Y-76191145D01*
X122812501Y-76190001D01*
X123387501Y-76190001D01*
X123410780Y-76191145D01*
X123410780Y-76191145D01*
G37*
D11*
X123100001Y-76665001D03*
G04 #@! TD*
D12*
G04 #@! TO.C,U1*
X121275001Y-73540001D03*
X121275001Y-74190001D03*
X121275001Y-74840001D03*
X121275001Y-75490001D03*
X121275001Y-76140001D03*
X121275001Y-76790001D03*
X121275001Y-77440001D03*
X121275001Y-78090001D03*
X121275001Y-78740001D03*
X121275001Y-79390001D03*
X115375001Y-79390001D03*
X115375001Y-78740001D03*
X115375001Y-78090001D03*
X115375001Y-77440001D03*
X115375001Y-76790001D03*
X115375001Y-76140001D03*
X115375001Y-75490001D03*
X115375001Y-74840001D03*
X115375001Y-74190001D03*
X115375001Y-73540001D03*
G04 #@! TD*
D13*
G04 #@! TO.C,U2*
X129295001Y-71505001D03*
X129795001Y-71505001D03*
X130295001Y-71505001D03*
X130795001Y-71505001D03*
X131295001Y-71505001D03*
X131795001Y-71505001D03*
X132295001Y-71505001D03*
X132795001Y-71505001D03*
X133295001Y-71505001D03*
X133795001Y-71505001D03*
X134295001Y-71505001D03*
X134795001Y-71505001D03*
D14*
X136395001Y-73105001D03*
X136395001Y-73605001D03*
X136395001Y-74105001D03*
X136395001Y-74605001D03*
X136395001Y-75105001D03*
X136395001Y-75605001D03*
X136395001Y-76105001D03*
X136395001Y-76605001D03*
X136395001Y-77105001D03*
X136395001Y-77605001D03*
X136395001Y-78105001D03*
X136395001Y-78605001D03*
D13*
X134795001Y-80205001D03*
X134295001Y-80205001D03*
X133795001Y-80205001D03*
X133295001Y-80205001D03*
X132795001Y-80205001D03*
X132295001Y-80205001D03*
X131795001Y-80205001D03*
X131295001Y-80205001D03*
X130795001Y-80205001D03*
X130295001Y-80205001D03*
X129795001Y-80205001D03*
X129295001Y-80205001D03*
D14*
X127695001Y-78605001D03*
X127695001Y-78105001D03*
X127695001Y-77605001D03*
X127695001Y-77105001D03*
X127695001Y-76605001D03*
X127695001Y-76105001D03*
X127695001Y-75605001D03*
X127695001Y-75105001D03*
X127695001Y-74605001D03*
X127695001Y-74105001D03*
X127695001Y-73605001D03*
X127695001Y-73105001D03*
G04 #@! TD*
D15*
G04 #@! TO.C,J1*
X107950000Y-117119400D03*
X110490000Y-117119400D03*
X113030000Y-117119400D03*
X115570000Y-117119400D03*
X118110000Y-117119400D03*
X120650000Y-117119400D03*
X123190000Y-117119400D03*
X125730000Y-117119400D03*
X128270000Y-117119400D03*
X130810000Y-117119400D03*
X133350000Y-117119400D03*
X135890000Y-117119400D03*
X138430000Y-117119400D03*
X140970000Y-117119400D03*
X143510000Y-117119400D03*
X146050000Y-117119400D03*
X148590000Y-117119400D03*
X151130000Y-117119400D03*
X153670000Y-117119400D03*
X156210000Y-117119400D03*
X158750000Y-117119400D03*
X161290000Y-117119400D03*
G04 #@! TD*
D16*
G04 #@! TO.C,U3*
X149650000Y-70900000D03*
X149650000Y-71400000D03*
X149650000Y-71900000D03*
X149650000Y-72400000D03*
X149650000Y-72900000D03*
X149650000Y-73400000D03*
X149650000Y-73900000D03*
X149650000Y-74400000D03*
X149650000Y-74900000D03*
X149650000Y-75400000D03*
X149650000Y-75900000D03*
X149650000Y-76400000D03*
X149650000Y-76900000D03*
X149650000Y-77400000D03*
X149650000Y-77900000D03*
X149650000Y-78400000D03*
X149650000Y-78900000D03*
X149650000Y-79400000D03*
X149650000Y-79900000D03*
X143950000Y-79900000D03*
X143950000Y-79400000D03*
X143950000Y-78900000D03*
X143950000Y-78400000D03*
X143950000Y-77900000D03*
X143950000Y-77400000D03*
X143950000Y-76900000D03*
X143950000Y-76400000D03*
X143950000Y-75900000D03*
X143950000Y-75400000D03*
X143950000Y-74900000D03*
X143950000Y-74400000D03*
X143950000Y-73900000D03*
X143950000Y-73400000D03*
X143950000Y-72900000D03*
X143950000Y-72400000D03*
X143950000Y-71900000D03*
X143950000Y-71400000D03*
X143950000Y-70900000D03*
G04 #@! TD*
M02*
