G04 #@! TF.GenerationSoftware,KiCad,Pcbnew,5.0.2-bee76a0~70~ubuntu18.04.1*
G04 #@! TF.CreationDate,2019-10-20T22:12:44-04:00*
G04 #@! TF.ProjectId,Stepper Driver Card,53746570-7065-4722-9044-726976657220,rev?*
G04 #@! TF.SameCoordinates,Original*
G04 #@! TF.FileFunction,Legend,Top*
G04 #@! TF.FilePolarity,Positive*
%FSLAX46Y46*%
G04 Gerber Fmt 4.6, Leading zero omitted, Abs format (unit mm)*
G04 Created by KiCad (PCBNEW 5.0.2-bee76a0~70~ubuntu18.04.1) date Sun 20 Oct 2019 10:12:44 PM EDT*
%MOMM*%
%LPD*%
G01*
G04 APERTURE LIST*
%ADD10C,0.120000*%
%ADD11C,0.150000*%
G04 APERTURE END LIST*
D10*
G04 #@! TO.C,J2*
X103895001Y-73385001D02*
X105225001Y-73385001D01*
X103895001Y-74715001D02*
X103895001Y-73385001D01*
X103895001Y-75985001D02*
X106555001Y-75985001D01*
X106555001Y-75985001D02*
X106555001Y-81125001D01*
X103895001Y-75985001D02*
X103895001Y-81125001D01*
X103895001Y-81125001D02*
X106555001Y-81125001D01*
G04 #@! TO.C,J3*
X107545001Y-73385001D02*
X108875001Y-73385001D01*
X107545001Y-74715001D02*
X107545001Y-73385001D01*
X107545001Y-75985001D02*
X110205001Y-75985001D01*
X110205001Y-75985001D02*
X110205001Y-81125001D01*
X107545001Y-75985001D02*
X107545001Y-81125001D01*
X107545001Y-81125001D02*
X110205001Y-81125001D01*
G04 #@! TO.C,J4*
X111195001Y-73385001D02*
X112525001Y-73385001D01*
X111195001Y-74715001D02*
X111195001Y-73385001D01*
X111195001Y-75985001D02*
X113855001Y-75985001D01*
X113855001Y-75985001D02*
X113855001Y-81125001D01*
X111195001Y-75985001D02*
X111195001Y-81125001D01*
X111195001Y-81125001D02*
X113855001Y-81125001D01*
G04 #@! TO.C,J5*
X177890000Y-76700000D02*
X177890000Y-76100000D01*
X178490000Y-76400000D02*
X177890000Y-76700000D01*
X177890000Y-76100000D02*
X178490000Y-76400000D01*
X189410000Y-61910000D02*
X190910000Y-62160000D01*
X189410000Y-60410000D02*
X189410000Y-61910000D01*
X190910000Y-60160000D02*
X189410000Y-60410000D01*
X190910000Y-62160000D02*
X190910000Y-60160000D01*
X189410000Y-66990000D02*
X190910000Y-67240000D01*
X189410000Y-65490000D02*
X189410000Y-66990000D01*
X190910000Y-65240000D02*
X189410000Y-65490000D01*
X190910000Y-67240000D02*
X190910000Y-65240000D01*
X189410000Y-72070000D02*
X190910000Y-72320000D01*
X189410000Y-70570000D02*
X189410000Y-72070000D01*
X190910000Y-70320000D02*
X189410000Y-70570000D01*
X190910000Y-72320000D02*
X190910000Y-70320000D01*
X189410000Y-77150000D02*
X190910000Y-77400000D01*
X189410000Y-75650000D02*
X189410000Y-77150000D01*
X190910000Y-75400000D02*
X189410000Y-75650000D01*
X190910000Y-77400000D02*
X190910000Y-75400000D01*
X189410000Y-57510000D02*
X189410000Y-80050000D01*
X187610000Y-57510000D02*
X189410000Y-57510000D01*
X187610000Y-80050000D02*
X187610000Y-57510000D01*
X189410000Y-80050000D02*
X187610000Y-80050000D01*
X178690000Y-57510000D02*
X178690000Y-80050000D01*
X190910000Y-57510000D02*
X178690000Y-57510000D01*
X190910000Y-80050000D02*
X190910000Y-57510000D01*
X178690000Y-80050000D02*
X190910000Y-80050000D01*
G04 #@! TO.C,J6*
X180200000Y-98900000D02*
X180200000Y-98300000D01*
X180800000Y-98600000D02*
X180200000Y-98900000D01*
X180200000Y-98300000D02*
X180800000Y-98600000D01*
X187600000Y-101160000D02*
X187600000Y-85540000D01*
X181490000Y-90550000D02*
X181490000Y-89150000D01*
X181490000Y-94050000D02*
X181490000Y-92650000D01*
X181490000Y-97550000D02*
X181490000Y-96150000D01*
X181490000Y-85540000D02*
X181490000Y-87050000D01*
X181490000Y-101160000D02*
X181490000Y-99650000D01*
X190910000Y-85540000D02*
X181490000Y-85540000D01*
X190910000Y-101160000D02*
X190910000Y-85540000D01*
X181490000Y-101160000D02*
X190910000Y-101160000D01*
G04 #@! TO.C,R1*
X123803734Y-74155001D02*
X124146268Y-74155001D01*
X123803734Y-73135001D02*
X124146268Y-73135001D01*
G04 #@! TO.C,R2*
X123803734Y-75665001D02*
X124146268Y-75665001D01*
X123803734Y-74645001D02*
X124146268Y-74645001D01*
G04 #@! TO.C,R3*
X123803734Y-77175001D02*
X124146268Y-77175001D01*
X123803734Y-76155001D02*
X124146268Y-76155001D01*
D11*
G04 #@! TO.C,U1*
X114575001Y-73015001D02*
X120550001Y-73015001D01*
X116100001Y-79915001D02*
X120550001Y-79915001D01*
D10*
G04 #@! TO.C,U2*
X128485001Y-79415001D02*
X128905001Y-79415001D01*
X128485001Y-72295001D02*
X128485001Y-72715001D01*
X128485001Y-72715001D02*
X127105001Y-72715001D01*
X135605001Y-72295001D02*
X135185001Y-72295001D01*
X135605001Y-79415001D02*
X135185001Y-79415001D01*
X128485001Y-72295001D02*
X128905001Y-72295001D01*
X128485001Y-79415001D02*
X128485001Y-78995001D01*
X135605001Y-79415001D02*
X135605001Y-78995001D01*
X135605001Y-72295001D02*
X135605001Y-72715001D01*
D11*
G04 #@! TO.C,J1*
X106680000Y-121920000D02*
X162560000Y-121920000D01*
X163652200Y-111760000D02*
X163652200Y-121920000D01*
X105587800Y-111760000D02*
X105587800Y-121920000D01*
G04 #@! TO.C,U3*
X144475000Y-80375000D02*
X149125000Y-80375000D01*
X143400000Y-70375000D02*
X149125000Y-70375000D01*
X144475000Y-80375000D02*
X144475000Y-80267500D01*
X149125000Y-80375000D02*
X149125000Y-80267500D01*
X149125000Y-70425000D02*
X149125000Y-70532500D01*
G04 #@! TO.C,J2*
X104891667Y-71837381D02*
X104891667Y-72551667D01*
X104844048Y-72694524D01*
X104748810Y-72789762D01*
X104605953Y-72837381D01*
X104510715Y-72837381D01*
X105320239Y-71932620D02*
X105367858Y-71885001D01*
X105463096Y-71837381D01*
X105701191Y-71837381D01*
X105796429Y-71885001D01*
X105844048Y-71932620D01*
X105891667Y-72027858D01*
X105891667Y-72123096D01*
X105844048Y-72265953D01*
X105272620Y-72837381D01*
X105891667Y-72837381D01*
G04 #@! TO.C,J3*
X108541667Y-71837381D02*
X108541667Y-72551667D01*
X108494048Y-72694524D01*
X108398810Y-72789762D01*
X108255953Y-72837381D01*
X108160715Y-72837381D01*
X108922620Y-71837381D02*
X109541667Y-71837381D01*
X109208334Y-72218334D01*
X109351191Y-72218334D01*
X109446429Y-72265953D01*
X109494048Y-72313572D01*
X109541667Y-72408810D01*
X109541667Y-72646905D01*
X109494048Y-72742143D01*
X109446429Y-72789762D01*
X109351191Y-72837381D01*
X109065477Y-72837381D01*
X108970239Y-72789762D01*
X108922620Y-72742143D01*
G04 #@! TO.C,J4*
X112191667Y-71837381D02*
X112191667Y-72551667D01*
X112144048Y-72694524D01*
X112048810Y-72789762D01*
X111905953Y-72837381D01*
X111810715Y-72837381D01*
X113096429Y-72170715D02*
X113096429Y-72837381D01*
X112858334Y-71789762D02*
X112620239Y-72504048D01*
X113239286Y-72504048D01*
G04 #@! TO.C,J5*
X177052380Y-69113333D02*
X177766666Y-69113333D01*
X177909523Y-69160952D01*
X178004761Y-69256190D01*
X178052380Y-69399047D01*
X178052380Y-69494285D01*
X177052380Y-68160952D02*
X177052380Y-68637142D01*
X177528571Y-68684761D01*
X177480952Y-68637142D01*
X177433333Y-68541904D01*
X177433333Y-68303809D01*
X177480952Y-68208571D01*
X177528571Y-68160952D01*
X177623809Y-68113333D01*
X177861904Y-68113333D01*
X177957142Y-68160952D01*
X178004761Y-68208571D01*
X178052380Y-68303809D01*
X178052380Y-68541904D01*
X178004761Y-68637142D01*
X177957142Y-68684761D01*
G04 #@! TO.C,J6*
X179252380Y-93683333D02*
X179966666Y-93683333D01*
X180109523Y-93730952D01*
X180204761Y-93826190D01*
X180252380Y-93969047D01*
X180252380Y-94064285D01*
X179252380Y-92778571D02*
X179252380Y-92969047D01*
X179300000Y-93064285D01*
X179347619Y-93111904D01*
X179490476Y-93207142D01*
X179680952Y-93254761D01*
X180061904Y-93254761D01*
X180157142Y-93207142D01*
X180204761Y-93159523D01*
X180252380Y-93064285D01*
X180252380Y-92873809D01*
X180204761Y-92778571D01*
X180157142Y-92730952D01*
X180061904Y-92683333D01*
X179823809Y-92683333D01*
X179728571Y-92730952D01*
X179680952Y-92778571D01*
X179633333Y-92873809D01*
X179633333Y-93064285D01*
X179680952Y-93159523D01*
X179728571Y-93207142D01*
X179823809Y-93254761D01*
G04 #@! TO.C,R1*
X123808334Y-72667381D02*
X123475001Y-72191191D01*
X123236905Y-72667381D02*
X123236905Y-71667381D01*
X123617858Y-71667381D01*
X123713096Y-71715001D01*
X123760715Y-71762620D01*
X123808334Y-71857858D01*
X123808334Y-72000715D01*
X123760715Y-72095953D01*
X123713096Y-72143572D01*
X123617858Y-72191191D01*
X123236905Y-72191191D01*
X124760715Y-72667381D02*
X124189286Y-72667381D01*
X124475001Y-72667381D02*
X124475001Y-71667381D01*
X124379762Y-71810239D01*
X124284524Y-71905477D01*
X124189286Y-71953096D01*
G04 #@! TO.C,R2*
X123808334Y-74177381D02*
X123475001Y-73701191D01*
X123236905Y-74177381D02*
X123236905Y-73177381D01*
X123617858Y-73177381D01*
X123713096Y-73225001D01*
X123760715Y-73272620D01*
X123808334Y-73367858D01*
X123808334Y-73510715D01*
X123760715Y-73605953D01*
X123713096Y-73653572D01*
X123617858Y-73701191D01*
X123236905Y-73701191D01*
X124189286Y-73272620D02*
X124236905Y-73225001D01*
X124332143Y-73177381D01*
X124570239Y-73177381D01*
X124665477Y-73225001D01*
X124713096Y-73272620D01*
X124760715Y-73367858D01*
X124760715Y-73463096D01*
X124713096Y-73605953D01*
X124141667Y-74177381D01*
X124760715Y-74177381D01*
G04 #@! TO.C,R3*
X123808334Y-75687381D02*
X123475001Y-75211191D01*
X123236905Y-75687381D02*
X123236905Y-74687381D01*
X123617858Y-74687381D01*
X123713096Y-74735001D01*
X123760715Y-74782620D01*
X123808334Y-74877858D01*
X123808334Y-75020715D01*
X123760715Y-75115953D01*
X123713096Y-75163572D01*
X123617858Y-75211191D01*
X123236905Y-75211191D01*
X124141667Y-74687381D02*
X124760715Y-74687381D01*
X124427381Y-75068334D01*
X124570239Y-75068334D01*
X124665477Y-75115953D01*
X124713096Y-75163572D01*
X124760715Y-75258810D01*
X124760715Y-75496905D01*
X124713096Y-75592143D01*
X124665477Y-75639762D01*
X124570239Y-75687381D01*
X124284524Y-75687381D01*
X124189286Y-75639762D01*
X124141667Y-75592143D01*
G04 #@! TO.C,U1*
X117563096Y-71617381D02*
X117563096Y-72426905D01*
X117610715Y-72522143D01*
X117658334Y-72569762D01*
X117753572Y-72617381D01*
X117944048Y-72617381D01*
X118039286Y-72569762D01*
X118086905Y-72522143D01*
X118134524Y-72426905D01*
X118134524Y-71617381D01*
X119134524Y-72617381D02*
X118563096Y-72617381D01*
X118848810Y-72617381D02*
X118848810Y-71617381D01*
X118753572Y-71760239D01*
X118658334Y-71855477D01*
X118563096Y-71903096D01*
G04 #@! TO.C,U2*
X131283096Y-69307381D02*
X131283096Y-70116905D01*
X131330715Y-70212143D01*
X131378334Y-70259762D01*
X131473572Y-70307381D01*
X131664048Y-70307381D01*
X131759286Y-70259762D01*
X131806905Y-70212143D01*
X131854524Y-70116905D01*
X131854524Y-69307381D01*
X132283096Y-69402620D02*
X132330715Y-69355001D01*
X132425953Y-69307381D01*
X132664048Y-69307381D01*
X132759286Y-69355001D01*
X132806905Y-69402620D01*
X132854524Y-69497858D01*
X132854524Y-69593096D01*
X132806905Y-69735953D01*
X132235477Y-70307381D01*
X132854524Y-70307381D01*
G04 #@! TO.C,J1*
X134286666Y-121872380D02*
X134286666Y-122586666D01*
X134239047Y-122729523D01*
X134143809Y-122824761D01*
X134000952Y-122872380D01*
X133905714Y-122872380D01*
X135286666Y-122872380D02*
X134715238Y-122872380D01*
X135000952Y-122872380D02*
X135000952Y-121872380D01*
X134905714Y-122015238D01*
X134810476Y-122110476D01*
X134715238Y-122158095D01*
G04 #@! TO.C,U3*
X146038095Y-68952380D02*
X146038095Y-69761904D01*
X146085714Y-69857142D01*
X146133333Y-69904761D01*
X146228571Y-69952380D01*
X146419047Y-69952380D01*
X146514285Y-69904761D01*
X146561904Y-69857142D01*
X146609523Y-69761904D01*
X146609523Y-68952380D01*
X146990476Y-68952380D02*
X147609523Y-68952380D01*
X147276190Y-69333333D01*
X147419047Y-69333333D01*
X147514285Y-69380952D01*
X147561904Y-69428571D01*
X147609523Y-69523809D01*
X147609523Y-69761904D01*
X147561904Y-69857142D01*
X147514285Y-69904761D01*
X147419047Y-69952380D01*
X147133333Y-69952380D01*
X147038095Y-69904761D01*
X146990476Y-69857142D01*
G04 #@! TD*
M02*
